<svg width="120" height="54" viewBox="0 0 120 54" fill="none" xmlns="http://www.w3.org/2000/svg">
<g clip-path="url(#clip0_135_342)">
<path d="M22.3009 46.2071C22.3371 51.2453 17.4346 53.8547 11.6482 53.8547C7.4819 53.8547 2.72727 52.383 0 49.8819L2.21138 46.2041C4.86625 48.0069 7.96158 49.292 11.6482 49.292C15.3349 49.292 16.4783 48.1152 16.4783 46.4238C16.4783 44.7323 15.5189 43.9227 10.36 43.1522C3.61424 42.0868 0.627514 40.1365 0.591311 35.8718C0.518906 30.8335 5.714 28.2241 11.0961 28.2241C15.1508 28.2241 18.3216 29.0698 21.8604 31.3121L19.7607 35.3571C16.5537 33.5182 14.2669 32.856 11.0992 32.856C7.93142 32.856 6.38073 34.1051 6.38073 35.7965C6.38073 37.488 7.52414 38.2223 12.2788 38.8122C18.3246 39.5857 22.2677 41.3494 22.3039 46.2041L22.3009 46.2071Z" fill="#231F20"/>
<path d="M43.5519 28.9585H48.0651V41.7256C48.0651 46.7579 43.5519 49.2559 38.2753 49.2559C32.9988 49.2559 28.4553 46.7849 28.4553 41.7256V28.9585H32.9083V41.226C32.9083 44.2267 35.4153 45.6081 38.218 45.6081C41.0207 45.6081 43.5549 44.1665 43.5549 41.226V28.9585H43.5519Z" fill="#231F20"/>
<path d="M69.4217 28.5552C75.2081 28.5552 79.0788 31.1285 79.0788 35.9109V38.2283C79.0788 42.8242 74.8038 45.1416 69.4579 45.1416H62.0484V53.5628H56.446V28.5582H69.4217V28.5552ZM73.5126 36.5339C73.5126 34.4391 71.7809 33.151 69.0536 33.151H62.0514V40.8739H69.0536C71.5607 40.8739 73.5126 39.9168 73.5126 37.6023V36.5369V36.5339Z" fill="#231F20"/>
<path d="M96.046 44.3314H89.6683V53.5622H84.0659V28.5576H97.3342C103.084 28.5576 106.88 30.9112 106.88 35.802V36.6477C106.88 40.1028 104.632 43.3563 101.314 44.2381M89.6713 40.0637H97.0446C99.1836 40.0276 101.247 39.1066 101.247 37.0841V36.1661C101.247 34.2158 99.5154 33.1504 96.9722 33.1504H89.6743V40.0637H89.6713Z" fill="#231F20"/>
<path d="M117.05 53.845C118.679 53.845 120 52.5271 120 50.9015C120 49.2759 118.679 47.958 117.05 47.958C115.42 47.958 114.099 49.2759 114.099 50.9015C114.099 52.5271 115.42 53.845 117.05 53.845Z" fill="#231F20"/>
<path d="M47.3291 52.0073H28.8536V53.762H47.3291V52.0073Z" fill="#ADCF00"/>
<path d="M101.573 44.1216C102.221 46.7761 103.193 49.0846 105.709 49.0846C106.572 49.0846 107.579 48.6542 108.261 48.0101L110.237 51.8475C108.584 53.1386 107.217 53.9994 104.632 53.9994C98.6645 53.9994 96.5648 47.5286 96.3385 44.2931" fill="#231F20"/>
<path d="M57.2884 24.7284C57.2884 24.7284 52.7509 20.256 46.9977 18.6097C44.2222 17.8151 41.2717 13.6437 41.0635 9.73411C40.8553 5.82451 40.6803 3.94044 39.8597 2.39345C39.0392 0.849479 37.7268 0.226472 37.7268 0.226472C37.7268 0.226472 51.5261 -1.54022 57.2039 4.79519C62.8787 11.1306 58.0094 18.9859 58.0094 18.9859C58.0094 18.9859 57.931 14.0711 53.5927 9.80333C49.2544 5.53558 45.7638 4.5484 45.7638 4.5484C45.7638 4.5484 51.1339 8.25033 54.2202 12.7137C59.0442 19.6902 57.2914 24.7254 57.2914 24.7254L57.2884 24.7284Z" fill="#ADCF00"/>
<path d="M59.3187 17.9831C59.3187 17.9831 60.1664 16.71 60.996 14.2812C61.8257 11.8524 63.9677 10.0465 68.0435 11.1993C72.1163 12.352 73.8299 15.3707 73.8299 15.3707C73.8299 15.3707 72.3788 15.1751 70.1041 17.7002C67.8263 20.2223 66.0463 21.9679 63.4337 21.5887C60.8211 21.2095 59.2704 19.205 59.2704 19.205C59.2704 19.205 61.1831 16.5956 64.4896 15.1209C67.7961 13.6431 70.7738 14.2511 70.7738 14.2511C70.7738 14.2511 68.1491 13.1495 65.1956 13.9862C62.242 14.8259 59.3217 17.9771 59.3217 17.9771L59.3187 17.9831Z" fill="#ADCF00"/>
</g>
<defs>
<clipPath id="clip0_135_342">
<rect width="120" height="54" fill="white"/>
</clipPath>
</defs>
</svg>
