<svg width="62" height="28" viewBox="0 0 62 28" fill="none" xmlns="http://www.w3.org/2000/svg">
<g clip-path="url(#clip0_163_510)">
<path d="M11.5221 23.9593C11.5408 26.5717 9.00789 27.9247 6.01825 27.9247C3.86565 27.9247 1.40909 27.1616 0 25.8647L1.14255 23.9577C2.51423 24.8925 4.11349 25.5589 6.01825 25.5589C7.92302 25.5589 8.51378 24.9487 8.51378 24.0716C8.51378 23.1946 8.0181 22.7748 5.35267 22.3753C1.86736 21.8228 0.324216 20.8116 0.305511 18.6002C0.268101 15.9878 2.95223 14.6348 5.733 14.6348C7.82794 14.6348 9.46616 15.0733 11.2945 16.2359L10.2097 18.3334C8.55274 17.3798 7.37123 17.0365 5.73456 17.0365C4.0979 17.0365 3.29671 17.6841 3.29671 18.5612C3.29671 19.4382 3.88747 19.819 6.34403 20.1249C9.46772 20.526 11.505 21.4405 11.5237 23.9577L11.5221 23.9593Z" fill="#231F20"/>
<path d="M22.5018 15.0156H24.8336V21.6356C24.8336 24.2449 22.5018 25.5402 19.7756 25.5402C17.0494 25.5402 14.7019 24.259 14.7019 21.6356V15.0156H17.0026V21.3766C17.0026 22.9325 18.2979 23.6488 19.746 23.6488C21.194 23.6488 22.5033 22.9013 22.5033 21.3766V15.0156H22.5018Z" fill="#231F20"/>
<path d="M35.8679 14.8066C38.8576 14.8066 40.8574 16.1409 40.8574 18.6207V19.8224C40.8574 22.2054 38.6487 23.407 35.8866 23.407H32.0584V27.7735H29.1638V14.8082H35.8679V14.8066ZM37.9815 18.9437C37.9815 17.8576 37.0868 17.1897 35.6777 17.1897H32.0599V21.1941H35.6777C36.973 21.1941 37.9815 20.6978 37.9815 19.4978V18.9453V18.9437Z" fill="#231F20"/>
<path d="M49.6238 22.9866H46.3286V27.773H43.4341V14.8076H50.2894C53.2603 14.8076 55.2212 16.028 55.2212 18.5639V19.0025C55.2212 20.794 54.0599 22.481 52.3453 22.9383M46.3302 20.7737H50.1397C51.2449 20.755 52.311 20.2775 52.311 19.2288V18.7528C52.311 17.7415 51.4163 17.1891 50.1023 17.1891H46.3318V20.7737H46.3302Z" fill="#231F20"/>
<path d="M60.4756 27.9197C61.3175 27.9197 62 27.2364 62 26.3934C62 25.5505 61.3175 24.8672 60.4756 24.8672C59.6337 24.8672 58.9512 25.5505 58.9512 26.3934C58.9512 27.2364 59.6337 27.9197 60.4756 27.9197Z" fill="#231F20"/>
<path d="M24.4534 26.9668H14.9077V27.8766H24.4534V26.9668Z" fill="#ADCF00"/>
<path d="M52.4793 22.8779C52.8144 24.2544 53.3163 25.4513 54.6163 25.4513C55.0621 25.4513 55.5827 25.2282 55.935 24.8942L56.956 26.8839C56.1018 27.5534 55.3957 27.9998 54.0599 27.9998C50.9767 27.9998 49.8918 24.6445 49.7749 22.9669" fill="#231F20"/>
<path d="M29.5985 12.8221C29.5985 12.8221 27.2542 10.5031 24.2817 9.64948C22.8476 9.23748 21.3232 7.07451 21.2157 5.04732C21.1081 3.02012 21.0177 2.04319 20.5937 1.24105C20.1697 0.440471 19.4917 0.11743 19.4917 0.11743C19.4917 0.11743 26.6213 -0.798633 29.5549 2.4864C32.4868 5.77143 29.971 9.84455 29.971 9.84455C29.971 9.84455 29.9305 7.29612 27.6891 5.08321C25.4476 2.8703 23.6442 2.35843 23.6442 2.35843C23.6442 2.35843 26.4187 4.27795 28.0133 6.59229C30.5057 10.2097 29.6001 12.8206 29.6001 12.8206L29.5985 12.8221Z" fill="#ADCF00"/>
<path d="M30.6475 9.32447C30.6475 9.32447 31.0855 8.66434 31.5141 7.40495C31.9428 6.14556 33.0495 5.20921 35.1553 5.80691C37.2596 6.40461 38.145 7.96988 38.145 7.96988C38.145 7.96988 37.3952 7.86844 36.22 9.17777C35.0431 10.4855 34.1235 11.3907 32.7736 11.194C31.4237 10.9974 30.6226 9.95806 30.6226 9.95806C30.6226 9.95806 31.6108 8.60504 33.3192 7.84035C35.0275 7.07411 36.566 7.38934 36.566 7.38934C36.566 7.38934 35.2099 6.81817 33.6839 7.25201C32.1579 7.68741 30.6491 9.32135 30.6491 9.32135L30.6475 9.32447Z" fill="#ADCF00"/>
</g>
<defs>
<clipPath id="clip0_163_510">
<rect width="62" height="28" fill="white"/>
</clipPath>
</defs>
</svg>
